<svg width="124" height="257" viewBox="0 0 124 257" fill="none" xmlns="http://www.w3.org/2000/svg">
<g filter="url(#filter0_d_764_113)">
<rect x="16" y="159" width="100" height="80" rx="8" fill="#EFE3C2"/>
</g>
<path d="M36 0H96V192C96 196.418 92.4183 200 88 200H44C39.5817 200 36 196.418 36 192V0Z" fill="#123524"/>
<g filter="url(#filter1_d_764_113)">
<circle cx="27" cy="239" r="12" fill="#123524"/>
<circle cx="53" cy="239" r="12" fill="#123524"/>
<circle cx="79" cy="239" r="12" fill="#123524"/>
<circle cx="105" cy="239" r="12" fill="#123524"/>
</g>
<circle cx="105" cy="239" r="8" fill="#EFE3C2"/>
<circle cx="79" cy="239" r="8" fill="#EFE3C2"/>
<circle cx="53" cy="239" r="8" fill="#EFE3C2"/>
<circle cx="27" cy="239" r="8" fill="#EFE3C2"/>
<circle cx="105" cy="239" r="7" fill="#123524"/>
<circle cx="79" cy="239" r="7" fill="#123524"/>
<circle cx="53" cy="239" r="7" fill="#123524"/>
<circle cx="27" cy="239" r="7" fill="#123524"/>
<defs>
<filter id="filter0_d_764_113" x="0" y="143" width="124" height="104" filterUnits="userSpaceOnUse" color-interpolation-filters="sRGB">
<feFlood flood-opacity="0" result="BackgroundImageFix"/>
<feColorMatrix in="SourceAlpha" type="matrix" values="0 0 0 0 0 0 0 0 0 0 0 0 0 0 0 0 0 0 127 0" result="hardAlpha"/>
<feOffset dx="-4" dy="-4"/>
<feGaussianBlur stdDeviation="6"/>
<feComposite in2="hardAlpha" operator="out"/>
<feColorMatrix type="matrix" values="0 0 0 0 0 0 0 0 0 0 0 0 0 0 0 0 0 0 0.7 0"/>
<feBlend mode="normal" in2="BackgroundImageFix" result="effect1_dropShadow_764_113"/>
<feBlend mode="normal" in="SourceGraphic" in2="effect1_dropShadow_764_113" result="shape"/>
</filter>
<filter id="filter1_d_764_113" x="10" y="225" width="110" height="32" filterUnits="userSpaceOnUse" color-interpolation-filters="sRGB">
<feFlood flood-opacity="0" result="BackgroundImageFix"/>
<feColorMatrix in="SourceAlpha" type="matrix" values="0 0 0 0 0 0 0 0 0 0 0 0 0 0 0 0 0 0 127 0" result="hardAlpha"/>
<feOffset dx="-1" dy="2"/>
<feGaussianBlur stdDeviation="2"/>
<feComposite in2="hardAlpha" operator="out"/>
<feColorMatrix type="matrix" values="0 0 0 0 0 0 0 0 0 0 0 0 0 0 0 0 0 0 0.7 0"/>
<feBlend mode="normal" in2="BackgroundImageFix" result="effect1_dropShadow_764_113"/>
<feBlend mode="normal" in="SourceGraphic" in2="effect1_dropShadow_764_113" result="shape"/>
</filter>
</defs>
</svg>
