<svg width="1440" height="278" viewBox="0 0 1440 278" fill="none" xmlns="http://www.w3.org/2000/svg">
<path d="M-3.01284 279.011C-3.56663 279.011 -4.01562 278.559 -4.01562 278V2.02165C-4.01562 1.46289 -3.56663 1.01074 -3.01284 1.01074H132.865C141.711 1.01074 148.909 8.26677 148.909 17.1853L147.906 112.222C147.906 120.015 154.204 126.363 161.945 126.363H1275.04C1282.78 126.363 1289.08 120.015 1289.08 112.211L1290.08 17.1744C1290.08 8.26678 1297.28 1.01074 1306.12 1.01074H1441C1441.55 1.01074 1442 1.46289 1442 2.02165V278C1442 278.559 1441.55 279.011 1441 279.011H-3.01284Z" fill="#85A947"/>
<path d="M1441 2.02182V278H-3.01005V2.02182H132.867C141.175 2.02182 147.909 8.81072 147.909 17.1855L146.906 112.211C146.906 120.586 153.641 127.375 161.948 127.375H1275.04C1283.35 127.375 1290.08 120.586 1290.08 112.211L1291.08 17.1855C1291.08 8.81072 1297.82 2.02182 1306.13 2.02182H1441ZM1441 0H1306.13C1296.73 0 1289.08 7.70935 1289.08 17.1855L1288.08 112.189C1288.08 119.457 1282.23 125.353 1275.04 125.353H161.948C154.76 125.353 148.912 119.457 148.912 112.211L149.915 17.207C149.915 7.70935 142.267 0 132.867 0H-3.01005C-4.11768 0 -5.01562 0.905219 -5.01562 2.02182V278C-5.01562 279.117 -4.11768 280.022 -3.01005 280.022H1441C1442.11 280.022 1443.01 279.117 1443.01 278V2.02182C1443.01 0.905219 1442.11 0 1441 0Z" fill="#3E7B27"/>
</svg>
